<svg xmlns="http://www.w3.org/2000/svg" viewBox="0 0 100 1000"><g><circle fill="#2b50ed" cx="50" cy="0" r="50"/><g fill="#3154ea"><circle cx="0" cy="50" r="50"/><circle cx="100" cy="50" r="50"/></g><circle fill="#3658e8" cx="50" cy="100" r="50"/><g fill="#3c5be5"><circle cx="0" cy="150" r="50"/><circle cx="100" cy="150" r="50"/></g><circle fill="#415fe2" cx="50" cy="200" r="50"/><g fill="#4662df"><circle cx="0" cy="250" r="50"/><circle cx="100" cy="250" r="50"/></g><circle fill="#4b66dc" cx="50" cy="300" r="50"/><g fill="#5069d9"><circle cx="0" cy="350" r="50"/><circle cx="100" cy="350" r="50"/></g><circle fill="#546cd5" cx="50" cy="400" r="50"/><g fill="#596fd2"><circle cx="0" cy="450" r="50"/><circle cx="100" cy="450" r="50"/></g><circle fill="#5e72cf" cx="50" cy="500" r="50"/><g fill="#6275cb"><circle cx="0" cy="550" r="50"/><circle cx="100" cy="550" r="50"/></g><circle fill="#6678c8" cx="50" cy="600" r="50"/><g fill="#6b7bc4"><circle cx="0" cy="650" r="50"/><circle cx="100" cy="650" r="50"/></g><circle fill="#6f7ec0" cx="50" cy="700" r="50"/><g fill="#7381bc"><circle cx="0" cy="750" r="50"/><circle cx="100" cy="750" r="50"/></g><circle fill="#7783b8" cx="50" cy="800" r="50"/><g fill="#7c86b4"><circle cx="0" cy="850" r="50"/><circle cx="100" cy="850" r="50"/></g><circle fill="#8089b0" cx="50" cy="900" r="50"/><g fill="#848bac"><circle cx="0" cy="950" r="50"/><circle cx="100" cy="950" r="50"/></g><circle fill="#888ea8" cx="50" cy="1000" r="50"/></g></svg>